<svg width="48" height="48" viewBox="0 0 48 48" fill="none" xmlns="http://www.w3.org/2000/svg">
<rect width="48" height="48" rx="24" fill="#F5F5F5"/>
<path d="M27.7267 21.2452C27.9952 20.9767 27.9952 20.5414 27.7267 20.2729C27.4583 20.0044 27.023 20.0044 26.7545 20.2729L23.9997 23.0277L21.2449 20.2729C20.9764 20.0044 20.5411 20.0044 20.2727 20.2729C20.0042 20.5414 20.0042 20.9767 20.2727 21.2452L23.0274 23.9999L20.2727 26.7547C20.0042 27.0232 20.0042 27.4585 20.2727 27.727C20.5411 27.9955 20.9764 27.9955 21.2449 27.727L23.9997 24.9722L26.7545 27.727C27.023 27.9955 27.4583 27.9955 27.7267 27.727C27.9952 27.4585 27.9952 27.0232 27.7267 26.7547L24.972 23.9999L27.7267 21.2452Z" fill="black"/>
</svg>
