<svg width="60" height="60" viewBox="0 0 60 60" fill="none" xmlns="http://www.w3.org/2000/svg">
<path fill-rule="evenodd" clip-rule="evenodd" d="M29.9998 9.375L48.1839 9.88913C51.3969 9.97998 54.0545 12.4191 54.4199 15.6126C55.2287 22.6816 55.2287 29.8199 54.4199 36.8889C54.0545 40.0824 51.3969 42.5215 48.1839 42.6124L33.1248 43.0381V48.1258H42.4998C43.5354 48.1258 44.3748 48.9652 44.3748 50.0008C44.3748 51.0363 43.5354 51.8758 42.4998 51.8758H17.4998C16.4643 51.8758 15.6248 51.0363 15.6248 50.0008C15.6248 48.9652 16.4643 48.1258 17.4998 48.1258H26.8748V43.0381L11.8157 42.6124C8.60269 42.5215 5.94514 40.0824 5.57976 36.8889C4.77094 29.8199 4.77094 22.6816 5.57976 15.6126C5.94514 12.4191 8.60269 9.97998 11.8157 9.88913L29.9998 9.375ZM12.4998 34.3758C11.4643 34.3758 10.6248 35.2152 10.6248 36.2508C10.6248 37.2863 11.4643 38.1258 12.4998 38.1258H47.4998C48.5354 38.1258 49.3748 37.2863 49.3748 36.2508C49.3748 35.2152 48.5354 34.3758 47.4998 34.3758H12.4998Z" fill="white"/>
</svg>
