<svg width="20" height="20" viewBox="0 0 20 20" fill="none" xmlns="http://www.w3.org/2000/svg">
<path fill-rule="evenodd" clip-rule="evenodd" d="M11.8748 2.08333C11.8748 1.96827 11.7816 1.875 11.6665 1.875H5.83317C4.56752 1.875 3.5415 2.90102 3.5415 4.16667V15.8333C3.5415 17.099 4.56752 18.125 5.83317 18.125H14.1665C15.4322 18.125 16.4582 17.099 16.4582 15.8333V7.62255C16.4582 7.50749 16.3649 7.41422 16.2498 7.41422H12.4998C12.1547 7.41422 11.8748 7.13439 11.8748 6.78922V2.08333ZM9.99984 8.33333C9.07936 8.33333 8.33317 9.07953 8.33317 10C8.33317 10.9205 9.07936 11.6667 9.99984 11.6667C10.9203 11.6667 11.6665 10.9205 11.6665 10C11.6665 9.07953 10.9203 8.33333 9.99984 8.33333ZM6.6665 15.4167C6.6665 14.036 7.78579 12.9167 9.1665 12.9167H10.8332C12.2139 12.9167 13.3332 14.036 13.3332 15.4167C13.3332 15.8769 12.9601 16.25 12.4998 16.25H7.49984C7.0396 16.25 6.6665 15.8769 6.6665 15.4167Z" fill="white"/>
<path d="M13.1248 2.35345C13.1248 2.1997 13.2854 2.10208 13.405 2.19866C13.5058 2.28 13.5963 2.3753 13.6736 2.48296L16.1846 5.98121C16.2417 6.06085 16.1798 6.16422 16.0818 6.16422H13.3332C13.2181 6.16422 13.1248 6.07094 13.1248 5.95588V2.35345Z" fill="white"/>
</svg>
