<svg width="30" height="30" viewBox="0 0 30 30" fill="none" xmlns="http://www.w3.org/2000/svg">
<path fill-rule="evenodd" clip-rule="evenodd" d="M23.1249 14.0625C21.5344 14.0625 20.1605 15.1751 19.8299 16.7309L19.8022 16.8614C19.7173 17.261 19.7023 17.6724 19.758 18.0771L19.9492 19.468C19.8778 19.4766 19.8063 19.4856 19.7349 19.4949C18.6353 19.6377 17.8124 20.5744 17.8124 21.6832V24.5668C17.8124 25.6757 18.6353 26.6123 19.7349 26.7551C21.9855 27.0474 24.2644 27.0474 26.5149 26.7551C27.6145 26.6123 28.4374 25.6757 28.4374 24.5668V21.6832C28.4374 20.5744 27.6145 19.6377 26.5149 19.4949C26.4435 19.4856 26.3721 19.4766 26.3006 19.468L26.4919 18.0771C26.5475 17.6724 26.5326 17.261 26.4476 16.8614L26.4199 16.7309C26.0893 15.1751 24.7155 14.0625 23.1249 14.0625ZM24.43 19.3081L24.6344 17.8217C24.6605 17.6318 24.6535 17.4387 24.6136 17.2511L24.5859 17.1206C24.4393 16.4308 23.8301 15.9375 23.1249 15.9375C22.4197 15.9375 21.8106 16.4308 21.664 17.1206L21.6362 17.2511C21.5964 17.4387 21.5894 17.6318 21.6155 17.8217L21.8198 19.3081C22.6894 19.2649 23.5605 19.2649 24.43 19.3081Z" fill="white"/>
<path d="M25.8646 12.4762C25.8965 12.6861 25.6636 12.8378 25.4738 12.7426C24.7628 12.386 23.9632 12.1875 23.1249 12.1875C20.649 12.1875 18.5105 13.9193 17.9959 16.3411L17.9681 16.4717C17.8692 16.9372 17.8323 17.413 17.8579 17.887C17.8683 18.0807 17.777 18.2664 17.6201 18.3805C16.5937 19.1271 15.9374 20.3365 15.9374 21.6832V23.4567C15.9374 23.6622 15.7719 23.8296 15.5663 23.8309C13.2296 23.8455 10.8925 23.7694 8.56025 23.6026L6.66774 23.4672C5.4571 23.3806 4.45854 22.4856 4.24039 21.2916C3.70583 18.3659 3.61431 15.3764 3.96891 12.4235L4.30952 9.58707C4.47393 8.2179 5.63547 7.1875 7.01447 7.1875H9.87893C11.1193 7.1875 12.1249 8.19305 12.1249 9.43346C12.1249 9.47443 12.1581 9.50765 12.1991 9.50765H23.0901C24.4159 9.50765 25.5452 10.471 25.7542 11.7802L25.8343 12.282C25.8446 12.3467 25.8547 12.4114 25.8646 12.4762Z" fill="white"/>
</svg>
