<svg width="22" height="22" viewBox="0 0 22 22" fill="none" xmlns="http://www.w3.org/2000/svg">
<g id="Solid/Interface/Login">
<g id="Icon">
<path d="M10.3122 17.4167C10.3122 17.037 10.62 16.7292 10.9997 16.7292H16.4997C16.6262 16.7292 16.7288 16.6266 16.7288 16.5L16.7288 5.50004C16.7288 5.37348 16.6262 5.27087 16.4997 5.27087L10.9997 5.27087C10.62 5.27087 10.3122 4.96307 10.3122 4.58337C10.3122 4.20368 10.62 3.89587 10.9997 3.89587H16.4997C17.3856 3.89587 18.1038 4.61408 18.1038 5.50004V16.5C18.1038 17.386 17.3856 18.1042 16.4997 18.1042H10.9997C10.62 18.1042 10.3122 17.7964 10.3122 17.4167Z" fill="white"/>
<path d="M3.20801 12.0223C3.20801 12.5286 3.61841 12.939 4.12467 12.939H8.57599C8.59702 13.2648 8.62333 13.5903 8.65493 13.9155L8.68212 14.1953C8.72633 14.6502 9.20938 14.9226 9.62153 14.7251C11.2971 13.9221 12.814 12.8232 14.0992 11.4813L14.1267 11.4526C14.3715 11.197 14.3715 10.7938 14.1267 10.5382L14.0992 10.5095C12.814 9.16766 11.2971 8.06878 9.62153 7.26577C9.20938 7.06824 8.72633 7.34067 8.68212 7.79556L8.65493 8.07533C8.62333 8.40049 8.59702 8.72605 8.57599 9.05185L4.12467 9.05185C3.61841 9.05185 3.20801 9.46226 3.20801 9.96852V12.0223Z" fill="white"/>
</g>
</g>
</svg>
