<svg width="22" height="22" viewBox="0 0 22 22" fill="none" xmlns="http://www.w3.org/2000/svg">
<path d="M10.3127 17.4173C10.3127 17.0376 10.6205 16.7298 11.0002 16.7298H16.5002C16.6267 16.7298 16.7293 16.6272 16.7293 16.5007L16.7293 5.50065C16.7293 5.37409 16.6267 5.27148 16.5002 5.27149L11.0002 5.27149C10.6205 5.27149 10.3127 4.96368 10.3127 4.58399C10.3127 4.20429 10.6205 3.89648 11.0002 3.89648H16.5002C17.3861 3.89648 18.1043 4.61469 18.1043 5.50065V16.5007C18.1043 17.3866 17.3861 18.1048 16.5002 18.1048H11.0002C10.6205 18.1048 10.3127 17.797 10.3127 17.4173Z" fill="black"/>
<path d="M3.2085 12.0229C3.2085 12.5292 3.6189 12.9396 4.12516 12.9396H8.57648C8.5975 13.2654 8.62382 13.591 8.65542 13.9161L8.68261 14.1959C8.72682 14.6508 9.20987 14.9232 9.62202 14.7257C11.2976 13.9227 12.8145 12.8238 14.0997 11.4819L14.1272 11.4532C14.372 11.1976 14.372 10.7945 14.1272 10.5388L14.0997 10.5101C12.8145 9.16827 11.2976 8.06939 9.62202 7.26638C9.20987 7.06886 8.72682 7.34128 8.68261 7.79617L8.65542 8.07594C8.62382 8.4011 8.5975 8.72666 8.57648 9.05246L4.12516 9.05246C3.6189 9.05246 3.2085 9.46287 3.2085 9.96913V12.0229Z" fill="black"/>
</svg>
