<svg width="22" height="22" viewBox="0 0 22 22" fill="none" xmlns="http://www.w3.org/2000/svg">
<g id="Solid/General/Moon">
<path id="Icon" d="M11.0002 3.20837C6.69694 3.20837 3.2085 6.69682 3.2085 11C3.2085 15.3033 6.69694 18.7917 11.0002 18.7917C15.0497 18.7917 18.3772 15.7028 18.7559 11.7524C18.7736 11.5685 18.6791 11.3921 18.5163 11.3047C18.3536 11.2174 18.1543 11.2364 18.0109 11.3527C17.2229 11.9922 16.2193 12.375 15.1252 12.375C12.5939 12.375 10.5418 10.323 10.5418 7.79171C10.5418 6.28828 11.2652 4.95392 12.3849 4.1174C12.5329 4.0068 12.6 3.81811 12.5551 3.63885C12.5102 3.4596 12.3621 3.32484 12.1794 3.29709C11.7946 3.23864 11.4008 3.20837 11.0002 3.20837Z" fill="#555555"/>
</g>
</svg>
