<svg width="60" height="60" viewBox="0 0 60 60" fill="none" xmlns="http://www.w3.org/2000/svg">
<path d="M32.9017 11.0171C31.1165 9.94221 28.8835 9.94221 27.0983 11.0171L25.8076 11.7943C22.6757 13.6802 19.1598 14.8374 15.5201 15.1803L14.7069 15.2569C13.1017 15.4082 11.875 16.7558 11.875 18.3682V22.4779C11.875 29.4244 14.6952 36.0734 19.6896 40.9015L27.828 48.769C29.0393 49.94 30.9607 49.94 32.172 48.769L40.3104 40.9015C45.3048 36.0734 48.125 29.4244 48.125 22.4779V18.3682C48.125 16.7558 46.8983 15.4082 45.2931 15.2569L44.4799 15.1803C40.8402 14.8374 37.3243 13.6802 34.1924 11.7943L32.9017 11.0171Z" fill="white"/>
</svg>
