<svg width="20" height="20" viewBox="0 0 20 20" fill="none" xmlns="http://www.w3.org/2000/svg">
<path d="M9.99984 3.125C8.27395 3.125 6.87484 4.52411 6.87484 6.25C6.87484 7.97589 8.27395 9.375 9.99984 9.375C11.7257 9.375 13.1248 7.97589 13.1248 6.25C13.1248 4.52411 11.7257 3.125 9.99984 3.125Z" fill="white"/>
<path d="M6.6665 11.0417C4.94061 11.0417 3.5415 12.4408 3.5415 14.1667V15.1569C3.5415 15.7846 3.99641 16.3198 4.6159 16.4209C8.18159 17.0031 11.8181 17.0031 15.3838 16.4209C16.0033 16.3198 16.4582 15.7846 16.4582 15.1569V14.1667C16.4582 12.4408 15.0591 11.0417 13.3332 11.0417H13.0491C12.8954 11.0417 12.7426 11.066 12.5964 11.1137L11.8752 11.3492C10.6566 11.7471 9.34306 11.7471 8.12449 11.3492L7.40323 11.1137C7.25708 11.066 7.10431 11.0417 6.95056 11.0417H6.6665Z" fill="white"/>
</svg>
