<svg width="60" height="60" viewBox="0 0 60 60" fill="none" xmlns="http://www.w3.org/2000/svg">
<path fill-rule="evenodd" clip-rule="evenodd" d="M52.5255 25.4278L52.532 34.485C52.4682 35.3478 52.386 36.2097 52.2854 37.0699C52.1172 38.5084 50.9478 39.6688 49.4793 39.8329C44.8799 40.347 40.1204 40.347 35.521 39.8329C34.0525 39.6688 32.8831 38.5084 32.7149 37.0699C32.1654 32.3724 32.1654 27.6268 32.7149 22.9293C32.8831 21.4908 34.0525 20.3304 35.521 20.1663C40.1204 19.6522 44.8799 19.6522 49.4793 20.1663C50.9478 20.3304 52.1172 21.4908 52.2854 22.9293C52.3827 23.7608 52.4627 24.5938 52.5255 25.4278ZM42.5001 26.2496C40.4291 26.2496 38.7501 27.9285 38.7501 29.9996C38.7501 32.0707 40.4291 33.7496 42.5001 33.7496C44.5712 33.7496 46.2501 32.0707 46.2501 29.9996C46.2501 27.9285 44.5712 26.2496 42.5001 26.2496Z" fill="white"/>
<path d="M51.0091 15.0989C51.3978 15.7721 50.6683 16.5258 49.8958 16.4395C45.0196 15.8945 39.9807 15.8945 35.1045 16.4395C31.9311 16.7942 29.3646 19.293 28.9902 22.4937C28.407 27.4806 28.407 32.5186 28.9902 37.5055C29.3646 40.7062 31.9311 43.205 35.1045 43.5597C39.9807 44.1047 45.0196 44.1047 49.8958 43.5597C50.6735 43.4728 51.409 44.2318 51.0165 44.9087C49.07 48.2658 45.5998 50.6088 41.5672 51.0331L39.9375 51.2046C31.6604 52.0756 23.3118 52.0182 15.0474 51.0334L13.9676 50.9047C9.51224 50.3738 5.98212 46.8929 5.38869 42.4455C4.28645 34.1848 4.28645 25.8144 5.38869 17.5537C5.98212 13.1063 9.51224 9.62543 13.9676 9.09452L15.0474 8.96584C23.3118 7.98102 31.6604 7.92359 39.9375 8.7946L41.5672 8.96609C45.6031 9.39079 49.068 11.7373 51.0091 15.0989Z" fill="white"/>
</svg>
