<svg xmlns="http://www.w3.org/2000/svg" width="40" height="40" fill="none"><path fill="#299764" fill-rule="evenodd" d="m35.017 16.952.005 6.038c-.043.575-.098 1.15-.165 1.723a2.12 2.12 0 0 1-1.87 1.842c-3.067.343-6.24.343-9.306 0a2.12 2.12 0 0 1-1.87-1.842 40.572 40.572 0 0 1 0-9.427 2.12 2.12 0 0 1 1.87-1.842 42.242 42.242 0 0 1 9.305 0 2.12 2.12 0 0 1 1.871 1.842c.065.555.118 1.11.16 1.666Zm-6.683.548a2.5 2.5 0 1 0 0 5 2.5 2.5 0 0 0 0-5Z" clip-rule="evenodd"/><path fill="#299764" d="M34.006 10.066c.26.449-.227.951-.742.894a44.745 44.745 0 0 0-9.86 0c-2.116.236-3.827 1.902-4.077 4.036a43.07 43.07 0 0 0 0 10.008c.25 2.134 1.96 3.8 4.076 4.036 3.25.363 6.61.363 9.861 0 .518-.058 1.009.448.747.9a8.285 8.285 0 0 1-6.3 4.082l-1.086.115a74.418 74.418 0 0 1-16.593-.115l-.72-.085a6.552 6.552 0 0 1-5.72-5.64 62.735 62.735 0 0 1 0-16.594 6.552 6.552 0 0 1 5.72-5.64l.72-.086a74.416 74.416 0 0 1 16.593-.114l1.087.115c2.69.283 5 1.847 6.294 4.088Z"/></svg>